<svg width="48" height="48" viewBox="0 0 48 48" fill="none" xmlns="http://www.w3.org/2000/svg">
<path fill-rule="evenodd" clip-rule="evenodd" d="M18 6C27.9408 6 36 14.0619 36 24.0025C36 33.943 27.9408 42 18 42C8.05922 42 0 33.9431 0 24.0025C0 14.0619 8.05922 6 18 6ZM22.6687 24.2739C22.6687 24.4334 22.7321 24.5863 22.8449 24.6991C22.9577 24.8119 23.1106 24.8753 23.2701 24.8753C23.4296 24.8753 23.5826 24.8119 23.6954 24.6991C23.8082 24.5863 23.8715 24.4334 23.8715 24.2739V24.2703C23.871 24.1108 23.8072 23.958 23.6941 23.8456C23.581 23.7331 23.4278 23.6702 23.2683 23.6707C23.1088 23.6712 22.9561 23.735 22.8436 23.8481C22.7312 23.9612 22.6683 24.1144 22.6687 24.2739ZM22.6687 20.4178C22.6687 20.5773 22.7321 20.7302 22.8449 20.843C22.9577 20.9558 23.1106 21.0192 23.2701 21.0192C23.4296 21.0192 23.5826 20.9558 23.6954 20.843C23.8082 20.7302 23.8715 20.5773 23.8715 20.4178V20.4142C23.871 20.2547 23.8072 20.1019 23.6941 19.9895C23.581 19.877 23.4278 19.8141 23.2683 19.8146C23.1088 19.8151 22.9561 19.8789 22.8436 19.992C22.7312 20.1051 22.6683 20.2583 22.6687 20.4178ZM24.5964 22.344C24.5963 22.4631 24.6315 22.5796 24.6975 22.6788C24.7636 22.7779 24.8575 22.8552 24.9675 22.9009C25.0775 22.9467 25.1986 22.9587 25.3155 22.9356C25.4324 22.9125 25.5398 22.8553 25.6241 22.7712C25.7084 22.687 25.7659 22.5798 25.7893 22.463C25.8127 22.3462 25.8009 22.2251 25.7555 22.1149C25.71 22.0048 25.6329 21.9107 25.5339 21.8444C25.435 21.7781 25.3186 21.7426 25.1994 21.7425H25.1959C25.1169 21.7424 25.0388 21.758 24.9659 21.7882C24.8931 21.8185 24.8269 21.8628 24.7712 21.9187C24.7155 21.9746 24.6714 22.0409 24.6414 22.1139C24.6114 22.1869 24.5961 22.2651 24.5964 22.344ZM20.7414 22.344C20.7413 22.4631 20.7765 22.5795 20.8425 22.6786C20.9086 22.7776 21.0025 22.8549 21.1125 22.9006C21.2224 22.9462 21.3435 22.9583 21.4603 22.9352C21.5771 22.9121 21.6844 22.8549 21.7687 22.7708C21.853 22.6867 21.9105 22.5795 21.9339 22.4628C21.9572 22.346 21.9455 22.225 21.9001 22.1149C21.8547 22.0048 21.7776 21.9107 21.6787 21.8444C21.5798 21.7781 21.4635 21.7426 21.3444 21.7425H21.3408C21.2619 21.7424 21.1838 21.758 21.1109 21.7883C21.0381 21.8185 20.9719 21.8628 20.9162 21.9187C20.8605 21.9746 20.8164 22.041 20.7864 22.1139C20.7564 22.1869 20.7411 22.2651 20.7414 22.344ZM10.1983 22.344C10.1982 22.423 10.2137 22.5013 10.2439 22.5743C10.2741 22.6473 10.3184 22.7137 10.3743 22.7695C10.4302 22.8254 10.4965 22.8697 10.5696 22.8999C10.6426 22.9301 10.7208 22.9456 10.7999 22.9455H12.1378V24.2846C12.1357 24.3648 12.1497 24.4447 12.1789 24.5195C12.2082 24.5943 12.2521 24.6625 12.3082 24.7201C12.3642 24.7776 12.4312 24.8233 12.5052 24.8546C12.5792 24.8858 12.6587 24.9019 12.739 24.9019C12.8193 24.9019 12.8988 24.8858 12.9728 24.8546C13.0468 24.8233 13.1138 24.7776 13.1698 24.7201C13.2259 24.6625 13.2698 24.5943 13.2991 24.5195C13.3283 24.4447 13.3423 24.3648 13.3402 24.2846V22.9455H14.6778C14.7568 22.9455 14.835 22.93 14.908 22.8997C14.981 22.8695 15.0473 22.8252 15.1031 22.7693C15.159 22.7135 15.2033 22.6472 15.2335 22.5742C15.2638 22.5012 15.2793 22.423 15.2793 22.344C15.2793 22.265 15.2638 22.1868 15.2335 22.1138C15.2033 22.0408 15.159 21.9745 15.1031 21.9187C15.0473 21.8628 14.981 21.8185 14.908 21.7883C14.835 21.758 14.7568 21.7425 14.6778 21.7425H13.3409V20.4034C13.343 20.3231 13.329 20.2432 13.2998 20.1684C13.2705 20.0936 13.2266 20.0255 13.1705 19.9679C13.1145 19.9104 13.0475 19.8647 12.9735 19.8334C12.8995 19.8022 12.82 19.7861 12.7397 19.7861C12.6594 19.7861 12.5799 19.8022 12.5059 19.8334C12.4319 19.8647 12.3649 19.9104 12.3089 19.9679C12.2528 20.0255 12.2089 20.0936 12.1796 20.1684C12.1504 20.2432 12.1364 20.3231 12.1385 20.4034V21.7425H10.8C10.721 21.7424 10.6427 21.7579 10.5697 21.7881C10.4967 21.8183 10.4303 21.8626 10.3745 21.9184C10.3186 21.9743 10.2743 22.0407 10.2441 22.1137C10.2139 22.1867 10.1984 22.265 10.1985 22.344H10.1983ZM9.60694 19.3968L9.60391 19.4017L9.60124 19.4067C8.65603 21.1762 7.81741 23.0489 7.25435 24.9776C6.80435 26.5193 6.51663 28.153 6.5835 29.7637L6.58392 29.7727L6.58505 29.7815C6.67118 30.4354 6.8208 31.2498 7.13412 31.8391C7.25084 32.0585 7.43984 32.33 7.68255 32.4237C7.94918 32.5264 8.27423 32.4229 8.52068 32.3092C8.89042 32.1259 9.23491 31.8956 9.54556 31.6239L9.56137 31.6107L9.57417 31.5944C10.4051 30.539 11.2234 29.4507 11.9578 28.3254C12.1724 27.9951 12.487 27.7421 12.8555 27.6032C13.2241 27.4643 13.6274 27.4468 14.0066 27.5533C15.3063 27.9128 16.6486 28.0947 17.9971 28.094H18C19.3491 28.0951 20.6922 27.9132 21.9924 27.5533C22.3717 27.4468 22.7751 27.4643 23.1437 27.6032C23.5124 27.7422 23.8269 27.9953 24.0415 28.3257C24.7756 29.4507 25.5949 30.5392 26.4251 31.5947L26.4379 31.6109L26.4537 31.6243C26.7644 31.896 27.1089 32.1263 27.4787 32.3095C27.7248 32.423 28.05 32.5268 28.3165 32.424C28.5595 32.3302 28.7484 32.059 28.8649 31.8394C29.1784 31.2502 29.328 30.4358 29.4141 29.7819L29.4153 29.773V29.7641C29.4822 28.1534 29.1947 26.5197 28.7446 24.9779C28.1815 23.0494 27.3428 21.1766 26.3976 19.4071L26.3949 19.402L26.3919 19.3972C25.4562 17.8627 23.9963 17.3571 22.2477 17.4755C22.0586 17.486 21.8755 17.5456 21.7166 17.6484C20.6019 18.3402 19.3131 18.6999 18.0013 18.6853H17.9965C16.6847 18.7014 15.3956 18.3417 14.2818 17.6485C14.1228 17.5456 13.9398 17.486 13.7507 17.4755C12.0023 17.357 10.542 17.863 9.60645 19.3972L9.60694 19.3968ZM11.468 15.5342C11.3884 15.5346 11.3121 15.5664 11.2558 15.6227C11.1995 15.679 11.1677 15.7552 11.1672 15.8349V16.5921L11.4259 16.5137C12.1428 16.3069 12.8894 16.2226 13.6344 16.2643L13.8435 16.2733V15.8349C13.843 15.7553 13.8112 15.679 13.7549 15.6228C13.6986 15.5665 13.6224 15.5346 13.5428 15.5342H11.468ZM22.4578 15.5342C22.3782 15.5346 22.302 15.5664 22.2457 15.6227C22.1894 15.679 22.1575 15.7552 22.1571 15.8349V16.2733L22.3661 16.2643C23.1111 16.2226 23.8578 16.3069 24.5747 16.5137L24.8333 16.592V15.8349C24.8329 15.7552 24.801 15.679 24.7447 15.6227C24.6884 15.5664 24.6122 15.5346 24.5326 15.5342H22.4578Z" fill="#2180FF"/>
</svg>
